<svg xmlns="http://www.w3.org/2000/svg" viewBox="-8 0 138 94" width="138"><defs>
<clipPath id="cps"><ellipse cx="54" cy="54" rx="46" ry="29"/></clipPath>
<radialGradient id="shs" cx=".35" cy=".25" r=".8"><stop offset="0" stop-color="#fff" stop-opacity=".32"/><stop offset="1" stop-color="#000" stop-opacity=".18"/></radialGradient></defs>
<g transform="">
<ellipse cx="52" cy="22" rx="27" ry="12.5" transform="rotate(-24 52 22)" fill="#cdd5ff" fill-opacity=".7" stroke="#8d9be0" stroke-width="1"/>
<ellipse cx="72" cy="19" rx="23" ry="10.5" transform="rotate(-6 72 19)" fill="#dfe4ff" fill-opacity=".75" stroke="#8d9be0" stroke-width="1"/>
<g stroke="#1a1d3a" stroke-width="3" stroke-linecap="round" fill="none"><path d="M50 78l-3 9M64 80l-1 9M78 77l4 8"/></g>
<g clip-path="url(#cps)"><rect width="130" height="92" fill="#1a1d3a"/><rect x="26" width="19" height="92" fill="#f2b01e"/><rect x="62" width="22" height="92" fill="#f2b01e"/></g>
<ellipse cx="54" cy="54" rx="46" ry="29" fill="url(#shs)"/>
<circle cx="100" cy="53" r="16" fill="#1a1d3a"/><circle cx="100" cy="53" r="16" fill="url(#shs)"/>
<circle cx="107" cy="49" r="4" fill="#fff"/><circle cx="108.5" cy="49.5" r="1.8" fill="#1a1d3a"/>
<path d="M99 40c2-9 8-13 14-14M104 42c4-7 10-9 16-8" stroke="#1a1d3a" stroke-width="2.4" stroke-linecap="round" fill="none"/>
<path d="M102 44l9-3" stroke="#1a1d3a" stroke-width="2.4" stroke-linecap="round"/>
</g><svg viewBox="0 0 40 46" x="-6" y="44" width="40" height="46"><path d="M20 2l16 6v14c0 11-7 18-16 22C11 40 4 33 4 22V8z" fill="#5b2bd1" stroke="#fff" stroke-width="2.5"/><path d="M12 23l6 6 11-12" fill="none" stroke="#fff" stroke-width="3.4" stroke-linecap="round" stroke-linejoin="round"/></svg></svg>